<svg xmlns="http://www.w3.org/2000/svg" width="1440" height="900" viewBox="0 0 1440 900" role="img" aria-labelledby="title desc">
  <title id="title">Krystin Sylvia portfolio preview</title>
  <desc id="desc">A stylized local preview of a creative portfolio with profile content and featured work panels.</desc>
  <defs>
    <linearGradient id="bg" x1="0" x2="1" y1="0" y2="1">
      <stop offset="0" stop-color="#14b8a6"/>
      <stop offset="1" stop-color="#581c87"/>
    </linearGradient>
    <filter id="shadow" x="-20%" y="-20%" width="140%" height="140%">
      <feDropShadow dx="0" dy="26" stdDeviation="24" flood-color="#134e4a" flood-opacity=".26"/>
    </filter>
  </defs>
  <rect width="1440" height="900" fill="url(#bg)"/>
  <rect x="88" y="86" width="1264" height="728" rx="54" fill="#f8fafc" opacity=".94" filter="url(#shadow)"/>
  <rect x="150" y="148" width="1140" height="86" rx="28" fill="#ffffff"/>
  <circle cx="206" cy="191" r="12" fill="#14b8a6"/>
  <circle cx="246" cy="191" r="12" fill="#a855f7"/>
  <circle cx="286" cy="191" r="12" fill="#d8b4fe"/>
  <text x="350" y="203" font-family="Inter, Arial, sans-serif" font-size="32" font-weight="900" fill="#134e4a">Krystin Sylvia</text>
  <rect x="1050" y="170" width="144" height="42" rx="21" fill="#14b8a6"/>
  <text x="1092" y="198" font-family="Inter, Arial, sans-serif" font-size="17" font-weight="800" fill="#ffffff">Work</text>
  <rect x="150" y="292" width="475" height="410" rx="36" fill="#ffffff"/>
  <text x="204" y="368" font-family="Inter, Arial, sans-serif" font-size="46" font-weight="900" fill="#0f172a">Creative work</text>
  <text x="204" y="414" font-family="Inter, Arial, sans-serif" font-size="22" fill="#64748b">Identity, storytelling, and polished web presence</text>
  <rect x="204" y="478" width="270" height="20" rx="10" fill="#14b8a6" opacity=".7"/>
  <rect x="204" y="526" width="330" height="20" rx="10" fill="#8b5cf6" opacity=".35"/>
  <rect x="204" y="608" width="172" height="52" rx="26" fill="#581c87"/>
  <text x="247" y="642" font-family="Inter, Arial, sans-serif" font-size="20" font-weight="800" fill="#ffffff">Explore</text>
  <rect x="690" y="292" width="250" height="410" rx="34" fill="#ccfbf1"/>
  <rect x="736" y="342" width="158" height="214" rx="28" fill="#14b8a6"/>
  <circle cx="815" cy="420" r="46" fill="#f8fafc" opacity=".75"/>
  <rect x="736" y="600" width="158" height="24" rx="12" fill="#0f766e"/>
  <rect x="980" y="292" width="310" height="190" rx="34" fill="#ede9fe"/>
  <rect x="1030" y="342" width="204" height="26" rx="13" fill="#6d28d9"/>
  <rect x="1030" y="396" width="158" height="18" rx="9" fill="#8b5cf6" opacity=".5"/>
  <rect x="980" y="512" width="310" height="190" rx="34" fill="#ffffff"/>
  <rect x="1030" y="566" width="226" height="26" rx="13" fill="#134e4a"/>
  <rect x="1030" y="620" width="178" height="18" rx="9" fill="#14b8a6" opacity=".45"/>
</svg>
